<svg preserveAspectRatio="none" overflow="visible" style="display: block;" width="146.681" height="190" viewBox="0 0 146.681 190" fill="none" xmlns="http://www.w3.org/2000/svg">
<g id="Group" opacity="0.2" filter="url(#filter0_f_0_4)">
<path id="Vector" d="M53.6351 74.3801C56.6609 75.0804 59.5358 76.3817 62.0845 78.1526C64.3619 79.735 66.536 83.1262 68.693 84.1036C66.0768 77.263 60.1297 70.0471 55.5387 64.326C50.5857 58.154 44.7419 52.587 37.5468 49.1271C34.1137 47.4761 30.4132 46.3171 27.2763 44.1561C22.7478 41.0367 19.8223 36.1415 17.0368 31.4005C18.9692 36.7562 20.9014 42.112 22.8337 47.4679C24.6499 52.5018 26.49 57.5842 29.3846 62.0852C32.2795 66.5861 36.3645 70.5196 41.4387 72.2199C45.3588 73.5336 49.6072 73.4478 53.6351 74.3801Z" fill="#C18F5F"/>
<path id="Vector_2" d="M5.89827 72.8574C5.26666 72.2656 4.63029 71.6776 4 71.0854C4.51454 71.8198 5.16528 72.3942 5.89827 72.8574Z" fill="#C18F5F"/>
<path id="Vector_3" d="M111.727 133.295C110.915 132.915 109.879 132.646 108.963 132.41C108.719 132.347 108.481 132.287 108.256 132.227C106.498 131.746 104.883 131.58 102.682 131.656C101.028 131.717 99.5453 131.705 98.1134 131.691C96.6851 131.68 95.2095 131.666 93.5613 131.724L93.569 131.962C88.9525 132.316 80.464 137.228 78.2908 139.661C72.8963 145.702 70.3385 153.788 69.1585 161.8C67.9783 169.812 68.0303 177.957 67.0871 186C67.1281 181.454 68.8682 176.942 71.891 173.546C74.8288 170.245 78.8219 168.066 81.9915 164.987C89.5479 157.647 91.7488 146.429 95.8119 137.08C97.0948 134.128 96.7048 132.66 95.3882 132.153C96.3261 132.144 97.2351 132.146 98.108 132.154C99.5471 132.166 101.033 132.18 102.697 132.119C104.849 132.044 106.426 132.202 108.136 132.67C108.361 132.733 108.601 132.795 108.846 132.858C109.744 133.089 110.76 133.35 111.533 133.711C113.646 134.7 116.141 135.827 118.552 136.92C120.393 137.752 122.231 138.588 123.962 139.385C129.739 143.006 135.877 146.114 142.373 147.634C142.734 147.718 142.803 147.146 142.444 147.062C136.578 145.689 131.003 143.009 125.71 139.819L125.761 139.708C125.471 139.572 125.132 139.418 124.828 139.277C120.596 136.665 116.542 133.76 112.695 130.917C109.196 128.333 105.832 125.574 102.547 122.724C103.725 117.534 105.025 112.706 107.64 107.895C111.242 101.269 115.775 95.0186 117.823 87.7608C120.563 78.0526 118.553 67.714 116.532 57.8314C115.198 63.8937 110.121 68.2721 106.459 73.2844C100.649 81.2386 98.2418 91.3211 98.3255 101.172C98.3717 106.589 98.3478 116.708 101.55 121.867C96.894 117.764 92.4399 113.432 88.265 108.84C82.5057 102.506 77.4204 95.7957 72.8416 88.7819C73.3824 88.6587 74.2548 87.1935 75.3582 85.2561C77.3105 81.8292 79.2122 78.3705 80.9527 74.8303C84.402 67.8131 87.2719 60.4585 88.6409 52.7327C90.1631 44.1453 89.8073 35.35 89.4465 26.6364C88.177 36.2697 78.0833 42.1742 74.1584 51.0628C69.676 61.2136 72.5583 75.2585 72.2523 86.0961C72.2279 86.9612 72.2652 87.5292 72.3306 87.9701C65.4897 77.3629 59.8016 66.0616 54.8853 54.1959C54.8332 54.0704 54.7292 54.0386 54.6247 54.042C52.6938 50.0321 52.6147 45.4064 51.726 41.038C50.1131 33.1099 45.7097 25.9648 40.292 19.9562C34.8744 13.9476 28.4425 8.95645 22.0483 4C26.4616 7.65211 29.1187 13.0022 31.0264 18.4035C32.9341 23.8048 34.2272 29.4328 36.5723 34.6593C40.0644 42.4423 45.8923 49.1595 53.105 53.7146L54.4158 54.1333C54.3469 54.2043 54.3024 54.2956 54.3516 54.4147C62.9818 75.244 73.9209 94.3305 89.3819 110.884C85.0295 107.446 80.6586 104.029 76.1802 100.758C71.7891 97.5506 67.2931 93.8647 62.1487 91.9474C62.0111 91.8962 61.9076 91.9609 61.8378 92.0516C55.2005 87.8387 49.9105 81.6626 42.7154 78.3011C33.6448 74.0635 23.133 75.1588 13.1346 74.6437C10.6459 74.5156 7.93522 74.1442 5.89838 72.8574C11.7277 78.318 17.6387 83.717 24.2137 88.2421C26.1883 89.6013 28.2529 90.8949 30.5521 91.5724C33.8648 92.5483 37.4 92.1781 40.8468 91.9688C48.1781 91.524 56.1897 91.4465 63.3936 93.097C68.0516 95.17 72.2297 98.5716 76.2908 101.554C81.364 105.279 86.3128 109.172 91.245 113.081C91.3456 113.161 91.4446 113.142 91.5305 113.095C93.5535 115.183 95.6311 117.214 97.7583 119.195L95.8499 117.839C94.0068 116.529 92.1017 115.171 89.9795 114.239C88.3949 113.54 86.2092 112.847 84.1091 112.897C75.8602 111.347 67.5386 109.853 59.1546 110.11C51.3122 110.35 43.6205 112.128 36.1792 114.529C32.4247 115.74 28.728 117.124 25.0551 118.561C21.3542 120.009 19.0744 120.963 23.7759 121.513C34.5443 122.774 48.0262 127.653 58.7175 124.682C67.3645 122.279 74.2561 114.317 82.9134 113.218L82.9545 113.429C85.2772 112.976 87.9535 113.85 89.7927 114.661C91.872 115.576 93.7579 116.918 95.5822 118.214L100.418 121.65C104.752 125.515 109.268 129.174 113.98 132.568C116.353 134.276 118.804 136.002 121.318 137.668C120.461 137.278 119.6 136.887 118.743 136.499C116.332 135.409 113.839 134.28 111.727 133.295Z" fill="#C18F5F"/>
</g>
<defs>
<filter id="filter0_f_0_4" x="7.99773e-08" y="4.79922e-08" width="146.681" height="190" filterUnits="userSpaceOnUse" color-interpolation-filters="sRGB">
<feFlood flood-opacity="0" result="BackgroundImageFix"/>
<feBlend mode="normal" in="SourceGraphic" in2="BackgroundImageFix" result="shape"/>
<feGaussianBlur stdDeviation="2" result="effect1_foregroundBlur_0_4"/>
</filter>
</defs>
</svg>
