<svg width="103" height="190" viewBox="0 0 103 190" fill="none" xmlns="http://www.w3.org/2000/svg">
<g opacity="0.2" filter="url(#filter0_f_196_47)">
<path d="M53.6351 115.62C56.6609 114.92 59.5358 113.619 62.0845 111.848C64.3619 110.266 66.536 106.874 68.6931 105.897C66.0768 112.737 60.1298 119.953 55.5387 125.674C50.5858 131.846 44.7419 137.414 37.5468 140.873C34.1137 142.524 30.4132 143.683 27.2763 145.844C22.7479 148.964 19.8223 153.859 17.0368 158.6C18.9693 153.244 20.9014 147.888 22.8337 142.533C24.6499 137.499 26.49 132.416 29.3846 127.915C32.2795 123.414 36.3646 119.481 41.4387 117.781C45.3588 116.467 49.6072 116.553 53.6351 115.62Z" fill="#C18F5F"/>
<path d="M5.89827 117.143C5.26666 117.735 4.63029 118.323 4 118.915C4.51454 118.181 5.16528 117.606 5.89827 117.143Z" fill="#C18F5F"/>
<path d="M111.727 56.7058C110.915 57.0855 109.879 57.3541 108.963 57.5908C108.719 57.653 108.481 57.714 108.256 57.7734C106.498 58.2546 104.883 58.42 102.682 58.3441C101.028 58.2836 99.5453 58.295 98.1134 58.3092C96.6851 58.3206 95.2095 58.3342 93.5612 58.2765L93.569 58.0381C88.9525 57.6844 80.464 52.7722 78.2908 50.339C72.8963 44.2987 70.3385 36.2128 69.1585 28.2008C67.9783 20.1887 68.0303 12.0433 67.0871 4C67.1281 8.54643 68.8682 13.058 71.891 16.4544C74.8288 19.7552 78.8219 21.9346 81.9915 25.0134C89.5479 32.3536 91.7488 43.5715 95.8119 52.9208C97.0948 55.8724 96.7048 57.3406 95.3882 57.8475C96.3261 57.8563 97.2351 57.855 98.108 57.8467C99.5471 57.8347 101.033 57.8204 102.697 57.8811C104.849 57.9568 106.426 57.7982 108.136 57.3307C108.361 57.2679 108.601 57.2052 108.846 57.1421C109.744 56.9114 110.76 56.6508 111.533 56.2896C113.646 55.3003 116.141 54.1735 118.552 53.0802C120.393 52.2486 122.231 51.4124 123.962 50.6158C129.739 46.9949 135.877 43.8866 142.373 42.3664C142.734 42.282 142.803 42.8547 142.444 42.9387C136.578 44.3113 131.003 46.9913 125.71 50.1817L125.761 50.293C125.471 50.4289 125.132 50.5824 124.828 50.7231C120.596 53.3351 116.542 56.2408 112.695 59.083C109.196 61.6674 105.832 64.4265 102.547 67.2763C103.725 72.4667 105.025 77.2943 107.64 82.1058C111.242 88.7315 115.775 94.9819 117.823 102.24C120.563 111.948 118.553 122.286 116.532 132.169C115.198 126.107 110.121 121.728 106.459 116.716C100.649 108.762 98.2418 98.6794 98.3255 88.8289C98.3717 83.4116 98.3478 73.2922 101.55 68.1335C96.894 72.2365 92.4399 76.5685 88.265 81.1605C82.5057 87.4949 77.4204 94.2048 72.8416 101.219C73.3824 101.342 74.2548 102.807 75.3582 104.744C77.3104 108.171 79.2122 111.63 80.9527 115.17C84.402 122.187 87.2719 129.542 88.6409 137.268C90.1631 145.855 89.8073 154.65 89.4465 163.364C88.177 153.731 78.0833 147.826 74.1584 138.938C69.676 128.787 72.5583 114.742 72.2523 103.904C72.2279 103.039 72.2652 102.471 72.3306 102.03C65.4897 112.638 59.8016 123.939 54.8853 135.805C54.8332 135.93 54.7292 135.962 54.6247 135.958C52.6938 139.968 52.6147 144.594 51.726 148.963C50.1131 156.891 45.7097 164.036 40.292 170.044C34.8744 176.053 28.4425 181.044 22.0483 186C26.4616 182.348 29.1187 176.998 31.0264 171.597C32.9341 166.196 34.2272 160.568 36.5723 155.341C40.0644 147.558 45.8923 140.841 53.105 136.286L54.4158 135.867C54.3469 135.796 54.3024 135.705 54.3516 135.586C62.9818 114.757 73.9209 95.67 89.3819 79.1167C85.0295 82.5545 80.6586 85.9713 76.1802 89.2424C71.7891 92.4499 67.2931 96.1358 62.1487 98.0531C62.0111 98.1043 61.9076 98.0396 61.8377 97.9489C55.2005 102.162 49.9105 108.338 42.7154 111.699C33.6448 115.937 23.133 114.842 13.1346 115.357C10.6459 115.485 7.93522 115.856 5.89838 117.143C11.7277 111.683 17.6387 106.284 24.2137 101.758C26.1883 100.399 28.2529 99.1056 30.5521 98.4281C33.8648 97.4522 37.4 97.8224 40.8468 98.0316C48.1781 98.4765 56.1897 98.5539 63.3936 96.9035C68.0516 94.8305 72.2297 91.4289 76.2908 88.4467C81.364 84.7216 86.3128 80.8286 91.245 76.9197C91.3456 76.8399 91.4446 76.8584 91.5305 76.9056C93.5535 74.8179 95.6311 72.7869 97.7583 70.8059L95.8499 72.1617C94.0068 73.4718 92.1017 74.829 89.9795 75.7616C88.3949 76.4603 86.2092 77.1532 84.1091 77.1035C75.8602 78.6537 67.5386 80.1476 59.1546 79.891C51.3122 79.6507 43.6205 77.8721 36.1792 75.4712C32.4247 74.26 28.728 72.8769 25.0551 71.4396C21.3542 69.9915 19.0744 69.0377 23.7759 68.4873C34.5443 67.2264 48.0262 62.3479 58.7175 65.3189C67.3645 67.7216 74.2561 75.6834 82.9134 76.7823L82.9545 76.5718C85.2772 77.0245 87.9535 76.1504 89.7927 75.3398C91.872 74.4249 93.7579 73.0821 95.5822 71.7865L100.418 68.3507C104.752 64.4856 109.268 60.8266 113.98 57.4329C116.353 55.7248 118.804 53.9986 121.318 52.3328C120.461 52.7225 119.6 53.113 118.743 53.5019C116.332 54.5916 113.839 55.7209 111.727 56.7058Z" fill="#C18F5F"/>
</g>
<defs>
<filter id="filter0_f_196_47" x="0" y="0" width="146.681" height="190" filterUnits="userSpaceOnUse" color-interpolation-filters="sRGB">
<feFlood flood-opacity="0" result="BackgroundImageFix"/>
<feBlend mode="normal" in="SourceGraphic" in2="BackgroundImageFix" result="shape"/>
<feGaussianBlur stdDeviation="2" result="effect1_foregroundBlur_196_47"/>
</filter>
</defs>
</svg>
